<svg width="64" height="64" xmlns="http://www.w3.org/2000/svg">

 <g>
  <title>background</title>
  <rect fill="none" id="canvas_background" height="50" width="50" y="-1" x="-1"/>
 </g>
 <g>
  <title>Layer 1</title>
  <path fill="#ffffff" id="svg_2" d="m32,62c13.233,0 24,-10.767 24,-24c0,-12.898 -10.229,-23.448 -23,-23.975l0,-5.025l2.598,0c1.215,1.127 5.797,5 11.402,5c6.42,0 11.499,-5.082 11.713,-5.298c0.383,-0.389 0.383,-1.014 0,-1.403c-0.214,-0.217 -5.293,-5.299 -11.713,-5.299c-5.605,0 -10.187,3.873 -11.402,5l-2.598,0l0,-5l-2,0l0,12.025c-12.771,0.527 -23,11.077 -23,23.975c0,13.233 10.767,24 24,24zm15,-58c4.233,0 7.947,2.688 9.507,4c-1.56,1.312 -5.273,4 -9.507,4c-3.321,0 -6.318,-1.654 -8.21,-3l11.21,0l0,-2l-11.21,0c1.892,-1.346 4.889,-3 8.21,-3zm-15,12c12.131,0 22,9.869 22,22s-9.869,22 -22,22s-22,-9.869 -22,-22s9.869,-22 22,-22z"/>
  <path fill="#ffffff" id="svg_3" d="m27.262,20.63l-0.525,-1.93c-1.078,0.293 -2.142,0.682 -3.158,1.154l0.844,1.813c0.913,-0.424 1.868,-0.773 2.839,-1.037z"/>
  <path fill="#ffffff" id="svg_4" d="m22.288,22.841l-1.08,-1.683c-4.464,2.866 -7.658,7.471 -8.764,12.632l1.955,0.419c0.996,-4.644 3.871,-8.787 7.889,-11.368z"/>
  <rect fill="#ffffff" id="svg_5" y="47" x="41" width="2" height="2"/>
  <rect fill="#ffffff" id="svg_6" y="51" x="41" width="2" height="2"/>
  <rect fill="#ffffff" id="svg_7" y="51" x="37" width="2" height="2"/>
  <rect fill="#ffffff" id="svg_8" y="55" x="37" width="2" height="2"/>
  <rect fill="#ffffff" id="svg_9" y="47" x="45" width="2" height="2"/>
 </g>
</svg>